<mxfile host="Electron" modified="2024-02-27T03:30:18.578Z" agent="Mozilla/5.0 (Windows NT 10.0; Win64; x64) AppleWebKit/537.36 (KHTML, like Gecko) draw.io/22.1.2 Chrome/114.0.5735.289 Electron/25.9.4 Safari/537.36" etag="VdLTFQoyM3pG32p9r5E8" version="22.1.2" type="device">
  <diagram name="Page-1" id="z4rvf5WDP6yyBgPW2-ed">
    <mxGraphModel dx="581" dy="918" grid="0" gridSize="10" guides="1" tooltips="1" connect="1" arrows="1" fold="1" page="1" pageScale="1" pageWidth="827" pageHeight="1169" background="none" math="0" shadow="0">
      <root>
        <mxCell id="0" />
        <mxCell id="1" parent="0" />
        <mxCell id="MAb-VLjlCoPOEhJvrVl1-30" value="Doctor" style="shape=umlActor;html=1;verticalLabelPosition=bottom;verticalAlign=top;align=center;fontSize=13;" parent="1" vertex="1">
          <mxGeometry x="40" y="597" width="30" height="70" as="geometry" />
        </mxCell>
        <mxCell id="MAb-VLjlCoPOEhJvrVl1-31" value="Nurse" style="shape=umlActor;html=1;verticalLabelPosition=bottom;verticalAlign=top;align=center;fontSize=13;" parent="1" vertex="1">
          <mxGeometry x="60" y="935.5" width="30" height="70" as="geometry" />
        </mxCell>
        <mxCell id="MAb-VLjlCoPOEhJvrVl1-32" value="DB Admin" style="shape=umlActor;html=1;verticalLabelPosition=bottom;verticalAlign=top;align=center;fontSize=13;" parent="1" vertex="1">
          <mxGeometry x="737" y="865.5" width="30" height="70" as="geometry" />
        </mxCell>
        <mxCell id="MAb-VLjlCoPOEhJvrVl1-48" value="&lt;font style=&quot;font-size: 13px;&quot;&gt;VU&amp;nbsp;&lt;/font&gt;" style="shape=rect;html=1;verticalAlign=top;fontStyle=1;whiteSpace=wrap;align=center;fontSize=13;" parent="1" vertex="1">
          <mxGeometry x="130" y="193" width="542" height="872" as="geometry" />
        </mxCell>
        <mxCell id="MAb-VLjlCoPOEhJvrVl1-49" value="Login" style="ellipse;whiteSpace=wrap;html=1;fontSize=13;spacingTop=0;spacingLeft=0;spacing=2;verticalAlign=middle;fillColor=#99CCFF;strokeColor=#6c8ebf;" parent="1" vertex="1">
          <mxGeometry x="207" y="272" width="120" height="40" as="geometry" />
        </mxCell>
        <mxCell id="MAb-VLjlCoPOEhJvrVl1-50" value="OTP Verfication" style="ellipse;whiteSpace=wrap;html=1;fontSize=13;spacingTop=0;spacingLeft=0;spacing=2;verticalAlign=middle;fillColor=#99CCFF;strokeColor=#6c8ebf;" parent="1" vertex="1">
          <mxGeometry x="413" y="258" width="120" height="40" as="geometry" />
        </mxCell>
        <mxCell id="MAb-VLjlCoPOEhJvrVl1-54" value="See Current Shiftt" style="ellipse;whiteSpace=wrap;html=1;fillColor=#99CCFF;strokeColor=#6c8ebf;fontSize=13;" parent="1" vertex="1">
          <mxGeometry x="453" y="721" width="120" height="40" as="geometry" />
        </mxCell>
        <mxCell id="MAb-VLjlCoPOEhJvrVl1-58" value="Set Main tables (doctor - nurse - icu)" style="ellipse;whiteSpace=wrap;html=1;fillColor=#99CCFF;strokeColor=#6c8ebf;fontSize=13;" parent="1" vertex="1">
          <mxGeometry x="546" y="962" width="120" height="40" as="geometry" />
        </mxCell>
        <mxCell id="MAb-VLjlCoPOEhJvrVl1-61" value="Manage Tasks" style="ellipse;whiteSpace=wrap;html=1;fillColor=#99CCFF;strokeColor=#6c8ebf;fontSize=13;" parent="1" vertex="1">
          <mxGeometry x="251" y="570" width="120" height="40" as="geometry" />
        </mxCell>
        <mxCell id="MAb-VLjlCoPOEhJvrVl1-62" value="Do Task" style="ellipse;whiteSpace=wrap;html=1;fillColor=#99CCFF;strokeColor=#6c8ebf;fontSize=13;" parent="1" vertex="1">
          <mxGeometry x="251" y="887.5" width="120" height="40" as="geometry" />
        </mxCell>
        <mxCell id="MAb-VLjlCoPOEhJvrVl1-66" value="Medical Record" style="ellipse;whiteSpace=wrap;html=1;fillColor=#99CCFF;strokeColor=#6c8ebf;fontSize=13;" parent="1" vertex="1">
          <mxGeometry x="452" y="787" width="120" height="40" as="geometry" />
        </mxCell>
        <mxCell id="MAb-VLjlCoPOEhJvrVl1-69" value="&amp;lt;&amp;lt;include&amp;gt;&amp;gt;" style="edgeStyle=none;html=1;endArrow=open;verticalAlign=bottom;dashed=1;labelBackgroundColor=none;rounded=0;entryX=0;entryY=0.5;entryDx=0;entryDy=0;exitX=1;exitY=0.5;exitDx=0;exitDy=0;fontSize=13;" parent="1" source="b1EQ3dk6hahrfXTTaAu9-1" target="MAb-VLjlCoPOEhJvrVl1-66" edge="1">
          <mxGeometry width="160" relative="1" as="geometry">
            <mxPoint x="727" y="654" as="sourcePoint" />
            <mxPoint x="887" y="654" as="targetPoint" />
          </mxGeometry>
        </mxCell>
        <mxCell id="MAb-VLjlCoPOEhJvrVl1-71" value="Set Task Descripton&amp;nbsp;" style="ellipse;whiteSpace=wrap;html=1;fillColor=#99CCFF;strokeColor=#6c8ebf;fontSize=13;" parent="1" vertex="1">
          <mxGeometry x="443" y="511" width="120" height="40" as="geometry" />
        </mxCell>
        <mxCell id="MAb-VLjlCoPOEhJvrVl1-72" value="System" style="rounded=0;whiteSpace=wrap;html=1;fontSize=13;" parent="1" vertex="1">
          <mxGeometry x="718" y="327" width="78" height="45" as="geometry" />
        </mxCell>
        <mxCell id="MAb-VLjlCoPOEhJvrVl1-73" value="Autoinsert Records By CV" style="ellipse;whiteSpace=wrap;html=1;fillColor=#99CCFF;strokeColor=#6c8ebf;fontSize=13;" parent="1" vertex="1">
          <mxGeometry x="475" y="372" width="120" height="40" as="geometry" />
        </mxCell>
        <mxCell id="MAb-VLjlCoPOEhJvrVl1-75" value="Set Deadline" style="ellipse;whiteSpace=wrap;html=1;fillColor=#99CCFF;strokeColor=#6c8ebf;fontSize=13;" parent="1" vertex="1">
          <mxGeometry x="477" y="565" width="120" height="40" as="geometry" />
        </mxCell>
        <mxCell id="MAb-VLjlCoPOEhJvrVl1-76" value="Notification" style="ellipse;whiteSpace=wrap;html=1;fillColor=#99CCFF;strokeColor=#6c8ebf;fontSize=13;" parent="1" vertex="1">
          <mxGeometry x="373" y="334" width="120" height="40" as="geometry" />
        </mxCell>
        <mxCell id="MAb-VLjlCoPOEhJvrVl1-77" value="Upload Images" style="ellipse;whiteSpace=wrap;html=1;fillColor=#99CCFF;strokeColor=#6c8ebf;fontSize=13;" parent="1" vertex="1">
          <mxGeometry x="471" y="902" width="120" height="40" as="geometry" />
        </mxCell>
        <mxCell id="MAb-VLjlCoPOEhJvrVl1-78" value="Set Medicine" style="ellipse;whiteSpace=wrap;html=1;fillColor=#99CCFF;strokeColor=#6c8ebf;fontSize=13;" parent="1" vertex="1">
          <mxGeometry x="465" y="619" width="120" height="40" as="geometry" />
        </mxCell>
        <mxCell id="MAb-VLjlCoPOEhJvrVl1-79" value="&amp;lt;&amp;lt;extend&amp;gt;&amp;gt;" style="edgeStyle=none;html=1;startArrow=open;endArrow=none;startSize=12;verticalAlign=bottom;dashed=1;labelBackgroundColor=none;rounded=0;entryX=0;entryY=0.5;entryDx=0;entryDy=0;exitX=1;exitY=0.5;exitDx=0;exitDy=0;fontSize=13;" parent="1" source="MAb-VLjlCoPOEhJvrVl1-62" target="MAb-VLjlCoPOEhJvrVl1-77" edge="1">
          <mxGeometry x="-0.033" y="-2" width="160" relative="1" as="geometry">
            <mxPoint x="332" y="659" as="sourcePoint" />
            <mxPoint x="492" y="659" as="targetPoint" />
            <mxPoint as="offset" />
          </mxGeometry>
        </mxCell>
        <mxCell id="MAb-VLjlCoPOEhJvrVl1-80" value="&amp;lt;&amp;lt;extend&amp;gt;&amp;gt;" style="edgeStyle=none;html=1;startArrow=open;endArrow=none;startSize=12;verticalAlign=bottom;dashed=1;labelBackgroundColor=none;rounded=0;entryX=0;entryY=0.5;entryDx=0;entryDy=0;exitX=1;exitY=0.5;exitDx=0;exitDy=0;fontSize=13;" parent="1" source="MAb-VLjlCoPOEhJvrVl1-61" target="MAb-VLjlCoPOEhJvrVl1-78" edge="1">
          <mxGeometry x="0.3164" y="13" width="160" relative="1" as="geometry">
            <mxPoint x="398" y="700" as="sourcePoint" />
            <mxPoint x="482" y="834" as="targetPoint" />
            <mxPoint as="offset" />
          </mxGeometry>
        </mxCell>
        <mxCell id="MAb-VLjlCoPOEhJvrVl1-83" value="&amp;lt;&amp;lt;include&amp;gt;&amp;gt;" style="edgeStyle=none;html=1;endArrow=open;verticalAlign=bottom;dashed=1;labelBackgroundColor=none;rounded=0;exitX=1;exitY=0.5;exitDx=0;exitDy=0;entryX=0;entryY=0.5;entryDx=0;entryDy=0;fontSize=13;" parent="1" source="MAb-VLjlCoPOEhJvrVl1-61" target="MAb-VLjlCoPOEhJvrVl1-75" edge="1">
          <mxGeometry width="160" relative="1" as="geometry">
            <mxPoint x="353" y="667" as="sourcePoint" />
            <mxPoint x="513" y="667" as="targetPoint" />
          </mxGeometry>
        </mxCell>
        <mxCell id="MAb-VLjlCoPOEhJvrVl1-88" value="" style="endArrow=none;html=1;rounded=0;entryX=1;entryY=0.3333333333333333;entryDx=0;entryDy=0;entryPerimeter=0;exitX=0;exitY=0.5;exitDx=0;exitDy=0;fontSize=13;" parent="1" source="MAb-VLjlCoPOEhJvrVl1-49" target="MAb-VLjlCoPOEhJvrVl1-30" edge="1">
          <mxGeometry width="50" height="50" relative="1" as="geometry">
            <mxPoint x="314" y="707" as="sourcePoint" />
            <mxPoint x="364" y="657" as="targetPoint" />
          </mxGeometry>
        </mxCell>
        <mxCell id="MAb-VLjlCoPOEhJvrVl1-96" value="" style="endArrow=none;html=1;rounded=0;entryX=0;entryY=0.3333333333333333;entryDx=0;entryDy=0;entryPerimeter=0;exitX=1;exitY=0.5;exitDx=0;exitDy=0;fontSize=13;" parent="1" source="MAb-VLjlCoPOEhJvrVl1-58" target="MAb-VLjlCoPOEhJvrVl1-32" edge="1">
          <mxGeometry width="50" height="50" relative="1" as="geometry">
            <mxPoint x="314" y="825" as="sourcePoint" />
            <mxPoint x="364" y="775" as="targetPoint" />
          </mxGeometry>
        </mxCell>
        <mxCell id="MAb-VLjlCoPOEhJvrVl1-97" value="" style="endArrow=none;html=1;rounded=0;entryX=0;entryY=0.5;entryDx=0;entryDy=0;exitX=1;exitY=0.5;exitDx=0;exitDy=0;fontSize=13;" parent="1" source="MAb-VLjlCoPOEhJvrVl1-76" target="MAb-VLjlCoPOEhJvrVl1-72" edge="1">
          <mxGeometry width="50" height="50" relative="1" as="geometry">
            <mxPoint x="308" y="430" as="sourcePoint" />
            <mxPoint x="358" y="380" as="targetPoint" />
          </mxGeometry>
        </mxCell>
        <mxCell id="MAb-VLjlCoPOEhJvrVl1-98" value="" style="endArrow=none;html=1;rounded=0;entryX=0;entryY=0.5;entryDx=0;entryDy=0;exitX=1;exitY=0.5;exitDx=0;exitDy=0;fontSize=13;" parent="1" source="MAb-VLjlCoPOEhJvrVl1-73" target="MAb-VLjlCoPOEhJvrVl1-72" edge="1">
          <mxGeometry width="50" height="50" relative="1" as="geometry">
            <mxPoint x="308" y="430" as="sourcePoint" />
            <mxPoint x="358" y="380" as="targetPoint" />
          </mxGeometry>
        </mxCell>
        <mxCell id="MAb-VLjlCoPOEhJvrVl1-100" value="" style="endArrow=none;html=1;rounded=0;exitX=1;exitY=0.3333333333333333;exitDx=0;exitDy=0;exitPerimeter=0;entryX=0;entryY=0.5;entryDx=0;entryDy=0;fillColor=#dae8fc;strokeColor=#6c8ebf;fontSize=13;" parent="1" source="MAb-VLjlCoPOEhJvrVl1-31" target="MAb-VLjlCoPOEhJvrVl1-49" edge="1">
          <mxGeometry width="50" height="50" relative="1" as="geometry">
            <mxPoint x="244" y="581" as="sourcePoint" />
            <mxPoint x="294" y="531" as="targetPoint" />
          </mxGeometry>
        </mxCell>
        <mxCell id="MAb-VLjlCoPOEhJvrVl1-102" value="" style="endArrow=none;html=1;rounded=0;entryX=0;entryY=0.5;entryDx=0;entryDy=0;exitX=1;exitY=0.5;exitDx=0;exitDy=0;fontSize=13;" parent="1" source="MAb-VLjlCoPOEhJvrVl1-67" target="MAb-VLjlCoPOEhJvrVl1-72" edge="1">
          <mxGeometry width="50" height="50" relative="1" as="geometry">
            <mxPoint x="244" y="581" as="sourcePoint" />
            <mxPoint x="294" y="531" as="targetPoint" />
          </mxGeometry>
        </mxCell>
        <mxCell id="EeUfaQ6F3aaDqCtiRohM-2" value="" style="endArrow=none;html=1;rounded=0;entryX=0;entryY=0.5;entryDx=0;entryDy=0;exitX=1;exitY=0.5;exitDx=0;exitDy=0;fontSize=13;" parent="1" source="MAb-VLjlCoPOEhJvrVl1-50" target="MAb-VLjlCoPOEhJvrVl1-72" edge="1">
          <mxGeometry width="50" height="50" relative="1" as="geometry">
            <mxPoint x="340" y="437" as="sourcePoint" />
            <mxPoint x="390" y="387" as="targetPoint" />
          </mxGeometry>
        </mxCell>
        <mxCell id="b1EQ3dk6hahrfXTTaAu9-1" value="Monitoring" style="ellipse;whiteSpace=wrap;html=1;fillColor=#99CCFF;strokeColor=#6c8ebf;fontSize=13;" parent="1" vertex="1">
          <mxGeometry x="251" y="717" width="120" height="40" as="geometry" />
        </mxCell>
        <mxCell id="MAb-VLjlCoPOEhJvrVl1-51" value="&amp;lt;&amp;lt;include&amp;gt;&amp;gt;" style="edgeStyle=none;html=1;endArrow=open;verticalAlign=middle;dashed=1;labelBackgroundColor=none;rounded=0;exitX=1;exitY=0.5;exitDx=0;exitDy=0;entryX=0;entryY=0.5;entryDx=0;entryDy=0;fontSize=13;spacingTop=0;spacingLeft=0;spacing=2;" parent="1" source="MAb-VLjlCoPOEhJvrVl1-49" target="MAb-VLjlCoPOEhJvrVl1-50" edge="1">
          <mxGeometry width="160" relative="1" as="geometry">
            <mxPoint x="279" y="332" as="sourcePoint" />
            <mxPoint x="439" y="332" as="targetPoint" />
          </mxGeometry>
        </mxCell>
        <mxCell id="FRQLJWUvSKMz8RCwtcy4-1" value="&amp;lt;&amp;lt;include&amp;gt;&amp;gt;" style="edgeStyle=none;html=1;endArrow=open;verticalAlign=bottom;dashed=1;labelBackgroundColor=none;rounded=0;entryX=0;entryY=0.5;entryDx=0;entryDy=0;exitX=1;exitY=0.5;exitDx=0;exitDy=0;fontSize=13;" parent="1" source="b1EQ3dk6hahrfXTTaAu9-1" target="MAb-VLjlCoPOEhJvrVl1-54" edge="1">
          <mxGeometry width="160" relative="1" as="geometry">
            <mxPoint x="377" y="565" as="sourcePoint" />
            <mxPoint x="406" y="503" as="targetPoint" />
          </mxGeometry>
        </mxCell>
        <mxCell id="MAb-VLjlCoPOEhJvrVl1-67" value="Streaming By Cam" style="ellipse;whiteSpace=wrap;html=1;fillColor=#99CCFF;strokeColor=#6c8ebf;fontSize=13;" parent="1" vertex="1">
          <mxGeometry x="464" y="431" width="120" height="40" as="geometry" />
        </mxCell>
        <mxCell id="FRQLJWUvSKMz8RCwtcy4-6" value="&amp;lt;&amp;lt;include&amp;gt;&amp;gt;" style="edgeStyle=none;html=1;endArrow=open;verticalAlign=bottom;dashed=1;labelBackgroundColor=none;rounded=0;exitX=1;exitY=0.5;exitDx=0;exitDy=0;entryX=0;entryY=0.5;entryDx=0;entryDy=0;fontSize=13;" parent="1" source="MAb-VLjlCoPOEhJvrVl1-61" target="MAb-VLjlCoPOEhJvrVl1-71" edge="1">
          <mxGeometry width="160" relative="1" as="geometry">
            <mxPoint x="514" y="650" as="sourcePoint" />
            <mxPoint x="595" y="682" as="targetPoint" />
          </mxGeometry>
        </mxCell>
        <mxCell id="FRQLJWUvSKMz8RCwtcy4-7" value="" style="endArrow=none;html=1;rounded=0;entryX=1;entryY=0.3333333333333333;entryDx=0;entryDy=0;entryPerimeter=0;exitX=0;exitY=0.5;exitDx=0;exitDy=0;fontSize=13;" parent="1" source="b1EQ3dk6hahrfXTTaAu9-1" target="MAb-VLjlCoPOEhJvrVl1-30" edge="1">
          <mxGeometry width="50" height="50" relative="1" as="geometry">
            <mxPoint x="205" y="310" as="sourcePoint" />
            <mxPoint x="98" y="358" as="targetPoint" />
          </mxGeometry>
        </mxCell>
        <mxCell id="FRQLJWUvSKMz8RCwtcy4-8" value="" style="endArrow=none;html=1;rounded=0;entryX=0;entryY=0.5;entryDx=0;entryDy=0;exitX=1;exitY=0.3333333333333333;exitDx=0;exitDy=0;exitPerimeter=0;fillColor=#dae8fc;strokeColor=#6c8ebf;fontSize=13;" parent="1" source="MAb-VLjlCoPOEhJvrVl1-31" target="b1EQ3dk6hahrfXTTaAu9-1" edge="1">
          <mxGeometry width="50" height="50" relative="1" as="geometry">
            <mxPoint x="101" y="899" as="sourcePoint" />
            <mxPoint x="243" y="896" as="targetPoint" />
          </mxGeometry>
        </mxCell>
        <mxCell id="iPCLOqddrITzNPG2kLK2-1" value="" style="endArrow=none;html=1;rounded=0;entryX=0;entryY=0.5;entryDx=0;entryDy=0;fillColor=#dae8fc;strokeColor=#6c8ebf;exitX=1;exitY=0.3333333333333333;exitDx=0;exitDy=0;exitPerimeter=0;fontSize=13;" parent="1" source="MAb-VLjlCoPOEhJvrVl1-31" target="MAb-VLjlCoPOEhJvrVl1-62" edge="1">
          <mxGeometry width="50" height="50" relative="1" as="geometry">
            <mxPoint x="89" y="935" as="sourcePoint" />
            <mxPoint x="202" y="615" as="targetPoint" />
          </mxGeometry>
        </mxCell>
        <mxCell id="iPCLOqddrITzNPG2kLK2-2" value="" style="endArrow=none;html=1;rounded=0;entryX=1;entryY=0.3333333333333333;entryDx=0;entryDy=0;entryPerimeter=0;exitX=0;exitY=0.5;exitDx=0;exitDy=0;fontSize=13;" parent="1" source="MAb-VLjlCoPOEhJvrVl1-61" target="MAb-VLjlCoPOEhJvrVl1-30" edge="1">
          <mxGeometry width="50" height="50" relative="1" as="geometry">
            <mxPoint x="202" y="615" as="sourcePoint" />
            <mxPoint x="98" y="358" as="targetPoint" />
          </mxGeometry>
        </mxCell>
        <mxCell id="iPCLOqddrITzNPG2kLK2-3" value="" style="endArrow=block;endFill=0;endSize=12;html=1;rounded=0;exitX=0.5;exitY=0;exitDx=0;exitDy=0;fontSize=13;" parent="1" source="b1EQ3dk6hahrfXTTaAu9-1" target="MAb-VLjlCoPOEhJvrVl1-61" edge="1">
          <mxGeometry width="160" relative="1" as="geometry">
            <mxPoint x="332" y="725" as="sourcePoint" />
            <mxPoint x="517" y="698" as="targetPoint" />
          </mxGeometry>
        </mxCell>
        <mxCell id="iPCLOqddrITzNPG2kLK2-4" value="" style="endArrow=block;endFill=0;endSize=12;html=1;rounded=0;exitX=0.5;exitY=1;exitDx=0;exitDy=0;entryX=0.5;entryY=0;entryDx=0;entryDy=0;fontSize=13;" parent="1" source="b1EQ3dk6hahrfXTTaAu9-1" target="MAb-VLjlCoPOEhJvrVl1-62" edge="1">
          <mxGeometry width="160" relative="1" as="geometry">
            <mxPoint x="313" y="589" as="sourcePoint" />
            <mxPoint x="311" y="663" as="targetPoint" />
          </mxGeometry>
        </mxCell>
        <mxCell id="iPCLOqddrITzNPG2kLK2-5" value="Add Patient" style="ellipse;whiteSpace=wrap;html=1;fillColor=#99CCFF;strokeColor=#6c8ebf;fontSize=13;" parent="1" vertex="1">
          <mxGeometry x="228" y="991" width="120" height="40" as="geometry" />
        </mxCell>
        <mxCell id="iPCLOqddrITzNPG2kLK2-6" value="" style="endArrow=none;html=1;rounded=0;entryX=0;entryY=0.5;entryDx=0;entryDy=0;fillColor=#dae8fc;strokeColor=#6c8ebf;exitX=1;exitY=0.3333333333333333;exitDx=0;exitDy=0;exitPerimeter=0;fontSize=13;" parent="1" source="MAb-VLjlCoPOEhJvrVl1-31" target="iPCLOqddrITzNPG2kLK2-5" edge="1">
          <mxGeometry width="50" height="50" relative="1" as="geometry">
            <mxPoint x="101" y="945" as="sourcePoint" />
            <mxPoint x="226" y="879" as="targetPoint" />
          </mxGeometry>
        </mxCell>
      </root>
    </mxGraphModel>
  </diagram>
</mxfile>
